<svg version="1" xmlns="http://www.w3.org/2000/svg" width="346.667" height="346.667" viewBox="0 0 260.000000 260.000000"><path d="M30 9.7C20 13.2 12.8 20.6 9.6 30.6 8.1 35 8 45.6 8.2 132l.3 96.5 2.5 5c3.1 6.4 9.1 12.4 15.5 15.5l5 2.5 110.3.3 110.2.2-.2-110.2-.3-110.3-2.5-5c-3.1-6.4-9.1-12.4-15.5-15.5l-5-2.5-97-.2C45.2 8.1 34 8.3 30 9.7zm122 50.7c15.5 5 27.1 14.8 33.9 28.6 5.4 11 7.3 20.3 7.3 36 0 30.4-11 51.4-32.6 62-10.8 5.3-16.6 6-53.3 6H74V57.8l36.3.4c31.3.4 36.9.7 41.7 2.2zm56.4 112.5c2.6 2.7 3.1 3.9 3.1 8.1 0 4.3-.5 5.4-3.3 8.2-2.8 2.8-3.9 3.3-8.2 3.3-4.3 0-5.4-.5-8.2-3.3-2.8-2.8-3.3-3.9-3.3-8.1 0-5.2 2.5-9.2 7-11.2 3.7-1.6 9.6-.3 12.9 3z"/><path d="M104 125.5V168h15.3c25.5 0 34.1-4.1 40.7-19.5 6.6-15.4 4.1-42.7-5.1-53.8-7.1-8.6-16.8-11.7-37.1-11.7H104v42.5z"/></svg>